<svg xmlns="http://www.w3.org/2000/svg" viewBox="0 0 153.37 74.75"><defs><style>.cls-1,.cls-2,.cls-3,.cls-4{isolation:isolate;}.cls-2,.cls-3,.cls-4{font-size:14px;fill:#1d1d1b;font-family:neuropol-x-light}.cls-3{letter-spacing:-0.05em;}.cls-4{letter-spacing:0.01em;}.cls-5{fill:#555454;}.cls-10,.cls-11,.cls-5,.cls-6,.cls-7,.cls-8,.cls-9{stroke:#fff;stroke-miterlimit:10;stroke-width:0.25px;}.cls-6{fill:#313131;}.cls-7{fill:#454242;}.cls-8{fill:#262626;}.cls-9{fill:#5c5c60;}.cls-10{fill:#221a16;}.cls-11{fill:#161617;}</style></defs><title>Middel 1</title><g id="Laag_2" data-name="Laag 2"><g id="Laag_1-2" data-name="Laag 1"><g class="cls-1"><text class="cls-2" transform="translate(0 71.57) scale(1.06 1)">P</text><text class="cls-2" transform="translate(14.78 71.57) scale(1.06 1)">r</text><text class="cls-3" transform="translate(22.93 71.57) scale(1.06 1)">o</text><text class="cls-4" transform="translate(35.54 71.57) scale(1.06 1)">ject</text><text class="cls-2" transform="translate(76.79 71.57) scale(1.06 1)"> </text><text class="cls-4" transform="translate(82.17 71.57) scale(1.06 1)">Nimium</text></g><polygon class="cls-5" points="71.48 0.72 91.02 13.66 96.7 9.12 71.48 0.72"/><polygon class="cls-6" points="91.02 13.66 80.47 44.99 58.53 20.26 91.02 13.66"/><polygon class="cls-7" points="71.48 0.72 58.53 20.26 91.02 13.66 71.48 0.72"/><polygon class="cls-7" points="91.02 13.66 101.98 35.09 80.47 44.99 91.02 13.66"/><polygon class="cls-8" points="56.81 44.27 80.47 44.99 58.53 20.26 56.81 44.27"/><polygon class="cls-9" points="91.02 13.66 96.7 9.12 101.98 35.09 91.02 13.66"/><polygon class="cls-10" points="71.48 0.72 51.59 18.41 58.59 20.41 71.48 0.72"/><polygon class="cls-11" points="51.61 18.46 56.81 44.27 58.59 20.46 51.61 18.46"/><polygon class="cls-11" points="56.65 44.37 82.03 52.66 80.47 44.99 56.65 44.37"/><polygon class="cls-6" points="101.98 35.09 82.03 52.66 80.47 44.99 101.98 35.09"/></g></g></svg>